<mxfile host="Electron" agent="Mozilla/5.0 (X11; Linux x86_64) AppleWebKit/537.36 (KHTML, like Gecko) draw.io/24.7.17 Chrome/128.0.6613.36 Electron/32.0.1 Safari/537.36" version="24.7.17">
  <diagram name="Page-1" id="5lIAYbUVGujzU3PBdtjW">
    <mxGraphModel dx="956" dy="557" grid="1" gridSize="10" guides="1" tooltips="1" connect="1" arrows="1" fold="1" page="1" pageScale="1" pageWidth="850" pageHeight="1100" math="0" shadow="0">
      <root>
        <mxCell id="0" />
        <mxCell id="1" parent="0" />
        <mxCell id="BfMkxxTZtH5orqJHcvwj-24" value="AWS Cloud" style="points=[[0,0],[0.25,0],[0.5,0],[0.75,0],[1,0],[1,0.25],[1,0.5],[1,0.75],[1,1],[0.75,1],[0.5,1],[0.25,1],[0,1],[0,0.75],[0,0.5],[0,0.25]];outlineConnect=0;gradientColor=none;html=1;whiteSpace=wrap;fontSize=12;fontStyle=0;container=1;pointerEvents=0;collapsible=0;recursiveResize=0;shape=mxgraph.aws4.group;grIcon=mxgraph.aws4.group_aws_cloud_alt;strokeColor=#232F3E;fillColor=none;verticalAlign=top;align=left;spacingLeft=30;fontColor=#232F3E;dashed=0;" vertex="1" parent="1">
          <mxGeometry x="442" y="40" width="120" height="278" as="geometry" />
        </mxCell>
        <mxCell id="BfMkxxTZtH5orqJHcvwj-6" value="" style="rounded=1;whiteSpace=wrap;html=1;arcSize=6;fillColor=none;dashed=1;" vertex="1" parent="1">
          <mxGeometry x="82.8" width="277.2" height="400" as="geometry" />
        </mxCell>
        <mxCell id="BfMkxxTZtH5orqJHcvwj-1" value="client&lt;div&gt;and&lt;/div&gt;&lt;div&gt;controller&lt;/div&gt;" style="image;points=[];aspect=fixed;html=1;align=center;shadow=0;dashed=0;image=img/lib/allied_telesis/computer_and_terminals/Personal_Computer.svg;" vertex="1" parent="1">
          <mxGeometry x="120" y="160" width="45.6" height="61.800000000000004" as="geometry" />
        </mxCell>
        <mxCell id="BfMkxxTZtH5orqJHcvwj-2" value="client" style="image;points=[];aspect=fixed;html=1;align=center;shadow=0;dashed=0;image=img/lib/allied_telesis/computer_and_terminals/Personal_Computer.svg;" vertex="1" parent="1">
          <mxGeometry x="120" y="310" width="45.6" height="61.800000000000004" as="geometry" />
        </mxCell>
        <mxCell id="BfMkxxTZtH5orqJHcvwj-3" value="client" style="image;points=[];aspect=fixed;html=1;align=center;shadow=0;dashed=0;image=img/lib/allied_telesis/computer_and_terminals/Laptop.svg;" vertex="1" parent="1">
          <mxGeometry x="120" y="500" width="42" height="42.599999999999994" as="geometry" />
        </mxCell>
        <mxCell id="BfMkxxTZtH5orqJHcvwj-4" value="unmanaged&lt;div&gt;device&lt;/div&gt;" style="verticalLabelPosition=bottom;sketch=0;aspect=fixed;html=1;verticalAlign=top;strokeColor=none;align=center;outlineConnect=0;shape=mxgraph.citrix.cell_phone;" vertex="1" parent="1">
          <mxGeometry x="133.10000000000002" y="685" width="25" height="60" as="geometry" />
        </mxCell>
        <mxCell id="BfMkxxTZtH5orqJHcvwj-5" value="&lt;div&gt;controller&lt;/div&gt;(Private System)" style="image;points=[];aspect=fixed;html=1;align=center;shadow=0;dashed=0;image=img/lib/allied_telesis/computer_and_terminals/Server_Desktop.svg;" vertex="1" parent="1">
          <mxGeometry x="121.5" y="40" width="42.599999999999994" height="54" as="geometry" />
        </mxCell>
        <mxCell id="BfMkxxTZtH5orqJHcvwj-7" value="Home LAB" style="text;html=1;align=center;verticalAlign=middle;whiteSpace=wrap;rounded=0;" vertex="1" parent="1">
          <mxGeometry x="186.4" width="70" height="30" as="geometry" />
        </mxCell>
        <mxCell id="BfMkxxTZtH5orqJHcvwj-8" value="WiFi&lt;div&gt;Hotspot&lt;/div&gt;" style="image;html=1;image=img/lib/clip_art/networking/Wireless_Router_128x128.png" vertex="1" parent="1">
          <mxGeometry x="270" y="490" width="60" height="60" as="geometry" />
        </mxCell>
        <mxCell id="BfMkxxTZtH5orqJHcvwj-9" value="GSM" style="fontColor=#0066CC;verticalAlign=top;verticalLabelPosition=bottom;labelPosition=center;align=center;html=1;outlineConnect=0;fillColor=#CCCCCC;strokeColor=#6881B3;gradientColor=none;gradientDirection=north;strokeWidth=2;shape=mxgraph.networks.radio_tower;" vertex="1" parent="1">
          <mxGeometry x="277.8" y="680" width="40" height="70" as="geometry" />
        </mxCell>
        <mxCell id="BfMkxxTZtH5orqJHcvwj-10" value="modem" style="fontColor=#0066CC;verticalAlign=top;verticalLabelPosition=bottom;labelPosition=center;align=center;html=1;outlineConnect=0;fillColor=#CCCCCC;strokeColor=#6881B3;gradientColor=none;gradientDirection=north;strokeWidth=2;shape=mxgraph.networks.modem;" vertex="1" parent="1">
          <mxGeometry x="260" y="192.5" width="70" height="15" as="geometry" />
        </mxCell>
        <mxCell id="BfMkxxTZtH5orqJHcvwj-11" value="" style="rounded=1;whiteSpace=wrap;html=1;arcSize=6;fillColor=none;dashed=1;" vertex="1" parent="1">
          <mxGeometry x="80" y="440" width="280" height="160" as="geometry" />
        </mxCell>
        <mxCell id="BfMkxxTZtH5orqJHcvwj-12" value="Public WiFi Hotspot" style="text;html=1;align=center;verticalAlign=middle;whiteSpace=wrap;rounded=0;" vertex="1" parent="1">
          <mxGeometry x="162.5" y="440" width="115" height="30" as="geometry" />
        </mxCell>
        <mxCell id="BfMkxxTZtH5orqJHcvwj-13" value="" style="rounded=1;whiteSpace=wrap;html=1;arcSize=6;fillColor=none;dashed=1;" vertex="1" parent="1">
          <mxGeometry x="82.8" y="640" width="280" height="160" as="geometry" />
        </mxCell>
        <mxCell id="BfMkxxTZtH5orqJHcvwj-14" value="Mobile Network" style="text;html=1;align=center;verticalAlign=middle;whiteSpace=wrap;rounded=0;" vertex="1" parent="1">
          <mxGeometry x="165.3" y="640" width="115" height="30" as="geometry" />
        </mxCell>
        <mxCell id="BfMkxxTZtH5orqJHcvwj-15" value="Public IP&lt;div&gt;Address&lt;div&gt;Service&lt;/div&gt;&lt;/div&gt;" style="sketch=0;outlineConnect=0;fontColor=#232F3E;gradientColor=none;fillColor=#232F3D;strokeColor=none;dashed=0;verticalLabelPosition=bottom;verticalAlign=top;align=center;html=1;fontSize=12;fontStyle=0;aspect=fixed;pointerEvents=1;shape=mxgraph.aws4.external_sdk;" vertex="1" parent="1">
          <mxGeometry x="479" y="440" width="34.87" height="40" as="geometry" />
        </mxCell>
        <mxCell id="BfMkxxTZtH5orqJHcvwj-18" value="Amazon S3" style="sketch=0;outlineConnect=0;fontColor=#232F3E;gradientColor=none;strokeColor=#ffffff;fillColor=#232F3E;dashed=0;verticalLabelPosition=middle;verticalAlign=bottom;align=center;html=1;whiteSpace=wrap;fontSize=10;fontStyle=1;spacing=3;shape=mxgraph.aws4.productIcon;prIcon=mxgraph.aws4.s3;" vertex="1" parent="1">
          <mxGeometry x="478.43" y="239" width="42" height="75" as="geometry" />
        </mxCell>
        <mxCell id="BfMkxxTZtH5orqJHcvwj-19" value="AWS Lambda" style="sketch=0;outlineConnect=0;fontColor=#232F3E;gradientColor=none;strokeColor=#ffffff;fillColor=#232F3E;dashed=0;verticalLabelPosition=middle;verticalAlign=bottom;align=center;html=1;whiteSpace=wrap;fontSize=10;fontStyle=1;spacing=3;shape=mxgraph.aws4.productIcon;prIcon=mxgraph.aws4.lambda;" vertex="1" parent="1">
          <mxGeometry x="479.43" y="159" width="40" height="70" as="geometry" />
        </mxCell>
        <mxCell id="BfMkxxTZtH5orqJHcvwj-21" value="Amazon EC2" style="sketch=0;outlineConnect=0;fontColor=#232F3E;gradientColor=none;strokeColor=#ffffff;fillColor=#232F3E;dashed=0;verticalLabelPosition=middle;verticalAlign=bottom;align=center;html=1;whiteSpace=wrap;fontSize=10;fontStyle=1;spacing=3;shape=mxgraph.aws4.productIcon;prIcon=mxgraph.aws4.ec2;" vertex="1" parent="1">
          <mxGeometry x="482" y="81.5" width="40" height="70" as="geometry" />
        </mxCell>
        <mxCell id="BfMkxxTZtH5orqJHcvwj-22" value="" style="shape=link;html=1;rounded=0;" edge="1" parent="1">
          <mxGeometry width="100" relative="1" as="geometry">
            <mxPoint x="178" y="70" as="sourcePoint" />
            <mxPoint x="470" y="100" as="targetPoint" />
          </mxGeometry>
        </mxCell>
        <mxCell id="BfMkxxTZtH5orqJHcvwj-23" value="Reverse TUNNEL" style="text;html=1;align=center;verticalAlign=middle;whiteSpace=wrap;rounded=0;fillColor=#f5f5f5;fontColor=#333333;strokeColor=#666666;" vertex="1" parent="1">
          <mxGeometry x="270" y="70" width="60" height="30" as="geometry" />
        </mxCell>
        <mxCell id="BfMkxxTZtH5orqJHcvwj-25" value="" style="endArrow=none;html=1;rounded=0;exitX=0.998;exitY=0.55;exitDx=0;exitDy=0;exitPerimeter=0;entryX=0.051;entryY=0.255;entryDx=0;entryDy=0;entryPerimeter=0;strokeColor=#23A2D9;strokeWidth=2;" edge="1" parent="1" source="BfMkxxTZtH5orqJHcvwj-1" target="BfMkxxTZtH5orqJHcvwj-26">
          <mxGeometry width="50" height="50" relative="1" as="geometry">
            <mxPoint x="160" y="280" as="sourcePoint" />
            <mxPoint x="400" y="360" as="targetPoint" />
          </mxGeometry>
        </mxCell>
        <mxCell id="BfMkxxTZtH5orqJHcvwj-29" style="edgeStyle=orthogonalEdgeStyle;rounded=0;orthogonalLoop=1;jettySize=auto;html=1;strokeColor=#23A2D9;strokeWidth=2;" edge="1" parent="1" source="BfMkxxTZtH5orqJHcvwj-26" target="BfMkxxTZtH5orqJHcvwj-18">
          <mxGeometry relative="1" as="geometry">
            <Array as="points">
              <mxPoint x="420" y="260" />
            </Array>
          </mxGeometry>
        </mxCell>
        <mxCell id="BfMkxxTZtH5orqJHcvwj-31" style="edgeStyle=orthogonalEdgeStyle;rounded=0;orthogonalLoop=1;jettySize=auto;html=1;strokeColor=#23A2D9;strokeWidth=2;" edge="1" parent="1" source="BfMkxxTZtH5orqJHcvwj-26" target="BfMkxxTZtH5orqJHcvwj-15">
          <mxGeometry relative="1" as="geometry">
            <Array as="points">
              <mxPoint x="422" y="460" />
            </Array>
          </mxGeometry>
        </mxCell>
        <mxCell id="BfMkxxTZtH5orqJHcvwj-26" value="" style="ellipse;whiteSpace=wrap;html=1;strokeColor=#23A2D9;strokeWidth=2;" vertex="1" parent="1">
          <mxGeometry x="402" y="340" width="40" height="40" as="geometry" />
        </mxCell>
        <mxCell id="BfMkxxTZtH5orqJHcvwj-27" value="" style="endArrow=none;html=1;rounded=0;exitX=0.943;exitY=0.583;exitDx=0;exitDy=0;exitPerimeter=0;entryX=0;entryY=0.5;entryDx=0;entryDy=0;strokeColor=#23A2D9;strokeWidth=2;" edge="1" parent="1" source="BfMkxxTZtH5orqJHcvwj-2" target="BfMkxxTZtH5orqJHcvwj-26">
          <mxGeometry width="50" height="50" relative="1" as="geometry">
            <mxPoint x="160" y="280" as="sourcePoint" />
            <mxPoint x="210" y="230" as="targetPoint" />
          </mxGeometry>
        </mxCell>
        <mxCell id="BfMkxxTZtH5orqJHcvwj-28" value="" style="endArrow=none;html=1;rounded=0;exitX=1;exitY=0.5;exitDx=0;exitDy=0;entryX=0.214;entryY=0.9;entryDx=0;entryDy=0;entryPerimeter=0;strokeColor=#23A2D9;strokeWidth=2;" edge="1" parent="1" source="BfMkxxTZtH5orqJHcvwj-11" target="BfMkxxTZtH5orqJHcvwj-26">
          <mxGeometry width="50" height="50" relative="1" as="geometry">
            <mxPoint x="173" y="356" as="sourcePoint" />
            <mxPoint x="412" y="370" as="targetPoint" />
          </mxGeometry>
        </mxCell>
        <mxCell id="BfMkxxTZtH5orqJHcvwj-33" style="edgeStyle=orthogonalEdgeStyle;rounded=0;orthogonalLoop=1;jettySize=auto;html=1;strokeColor=#0000FF;strokeWidth=2;" edge="1" parent="1" source="BfMkxxTZtH5orqJHcvwj-30" target="BfMkxxTZtH5orqJHcvwj-21">
          <mxGeometry relative="1" as="geometry">
            <Array as="points">
              <mxPoint x="600" y="630" />
              <mxPoint x="600" y="100" />
            </Array>
          </mxGeometry>
        </mxCell>
        <mxCell id="BfMkxxTZtH5orqJHcvwj-30" value="Internet" style="ellipse;shape=cloud;whiteSpace=wrap;html=1;strokeColor=#0000FF;strokeWidth=2;" vertex="1" parent="1">
          <mxGeometry x="436.44" y="590" width="120" height="80" as="geometry" />
        </mxCell>
        <mxCell id="BfMkxxTZtH5orqJHcvwj-32" value="" style="endArrow=none;html=1;rounded=0;entryX=0;entryY=0.25;entryDx=0;entryDy=0;exitX=0.55;exitY=0.95;exitDx=0;exitDy=0;exitPerimeter=0;strokeColor=#0000FF;strokeWidth=2;" edge="1" parent="1" source="BfMkxxTZtH5orqJHcvwj-30" target="BfMkxxTZtH5orqJHcvwj-6">
          <mxGeometry width="50" height="50" relative="1" as="geometry">
            <mxPoint x="180" y="350" as="sourcePoint" />
            <mxPoint x="230" y="300" as="targetPoint" />
            <Array as="points">
              <mxPoint x="500" y="880" />
              <mxPoint x="40" y="880" />
              <mxPoint x="40" y="100" />
            </Array>
          </mxGeometry>
        </mxCell>
        <mxCell id="BfMkxxTZtH5orqJHcvwj-34" value="" style="endArrow=none;html=1;rounded=0;entryX=0;entryY=0.5;entryDx=0;entryDy=0;strokeColor=#0000FF;strokeWidth=2;" edge="1" parent="1" target="BfMkxxTZtH5orqJHcvwj-13">
          <mxGeometry width="50" height="50" relative="1" as="geometry">
            <mxPoint x="40" y="720" as="sourcePoint" />
            <mxPoint x="-100" y="670" as="targetPoint" />
          </mxGeometry>
        </mxCell>
        <mxCell id="BfMkxxTZtH5orqJHcvwj-35" value="" style="endArrow=none;html=1;rounded=0;entryX=0;entryY=0.5;entryDx=0;entryDy=0;strokeColor=#0000FF;strokeWidth=2;" edge="1" parent="1" target="BfMkxxTZtH5orqJHcvwj-11">
          <mxGeometry width="50" height="50" relative="1" as="geometry">
            <mxPoint x="39.8" y="519.66" as="sourcePoint" />
            <mxPoint x="82.8" y="519.66" as="targetPoint" />
          </mxGeometry>
        </mxCell>
      </root>
    </mxGraphModel>
  </diagram>
</mxfile>
